<svg width="28" height="23" viewBox="0 0 28 23" fill="none" xmlns="http://www.w3.org/2000/svg">
<g clip-path="url(#clip0_16_185)">
<path d="M12.386 21.139C5.70999 20.538 5.65799 15.793 5.57999 14.516C5.50199 13.24 6.25899 9.84899 6.25899 9.84899H8.57799C8.57799 9.84899 8.474 10.031 8.187 11.022C7.9 12.013 8.08299 13.186 8.08299 13.186C8.94399 17.332 12.646 17.515 12.646 17.515C12.646 17.515 13.664 17.593 14.499 17.515C15.333 17.436 16.768 16.706 16.768 16.706L17.054 13.368C16.481 14.072 15.49 15.193 13.377 14.829C11.265 14.464 10.17 11.179 12.491 9.40499C14.811 7.63199 16.818 9.50899 16.818 9.50899L17.053 6.56299C12.333 4.44999 9.25699 8.75299 9.25699 8.75299L9.543 6.84999H0.677994L0.234985 9.82199H2.89499L2.452 16.655C3.964 22.418 9.439 22.626 9.439 22.626H12.099C18.46 21.766 21.695 16.941 21.695 16.941C17.601 21.582 12.386 21.139 12.386 21.139Z" fill="white"/>
<path d="M24.406 6.823L23.859 12.279C23.859 12.279 23.389 13.433 22.177 13.433C22.177 13.433 20.573 13.334 20.573 12.279C20.573 11.224 21.022 6.823 21.022 6.823H17.6L17.13 12.632C17.13 12.632 17.618 16.778 21.784 16.778C21.784 16.778 25.794 16.994 27.222 12.612C27.222 12.612 27.57 11.068 27.738 6.824L24.406 6.823Z" fill="white"/>
<path d="M14.9009 1.99994C14.9009 1.99994 20.182 1.79694 21.017 5.97894V6.79994H24.4009V5.97894C24.4009 5.97894 24.0029 1.04694 18.1489 0.564941H16.3239C16.3239 0.564941 9.72595 0.877939 5.39795 6.45794C5.39795 6.45794 8.78294 2.39094 14.9009 1.99994Z" fill="white"/>
</g>
<defs>
<clipPath id="clip0_16_185">
<rect width="28" height="23" fill="white"/>
</clipPath>
</defs>
</svg>
