<svg width="169" height="23" viewBox="0 0 169 23" fill="none" xmlns="http://www.w3.org/2000/svg">
<g clip-path="url(#clip0_62_749)">
<path fill-rule="evenodd" clip-rule="evenodd" d="M168.463 22.776H3.05176e-05V0H168.463V22.776ZM167.408 1.056H146.742V21.72H167.408V1.056ZM145.718 21.72H1.05403V1.054H145.716L145.718 21.72ZM164.736 16.313L163.369 16.308C157.492 12.036 153.802 12.036 149.125 16.308C148.332 16.306 146.741 16.308 146.741 16.308V18.068H167.407V16.308H166.699V9.67H167.407V9.24L166.7 9.238V8.913H167.408V8.683H166.701V2.515H164.737" fill="white"/>
<path d="M26.016 7.94695C25.556 7.42695 24.839 7.12195 23.979 7.12195C22.692 7.12195 21.621 7.95795 21.621 9.06595C21.621 10.2319 22.386 10.7389 23.071 11.2689C23.741 11.7629 24.979 12.4349 24.979 13.4709C24.979 14.3909 24.355 14.8259 23.541 14.8259C22.764 14.8259 22.234 14.4479 21.751 14.1059L21.244 14.7909C21.832 15.3669 22.774 15.6509 23.564 15.6509C24.884 15.6509 26.121 14.8009 26.121 13.4949C26.121 12.4349 25.461 11.6799 24.331 10.8549C23.271 10.0899 22.764 9.65495 22.764 9.06495C22.764 8.42995 23.224 7.94495 24.047 7.94495C24.542 7.94495 25.072 8.23995 25.474 8.53495L26.014 7.94495L26.016 7.94695ZM32.626 7.26295H28.562V15.5099H33.132L33.134 14.6859H29.706V11.5739H32.568V10.7509H29.706V8.08995H32.626V7.26495V7.26295ZM66.916 15.6529C69.46 15.6529 71.039 13.7069 71.039 11.2459C71.037 8.93595 69.294 7.12195 66.914 7.12195C64.534 7.12195 62.791 8.93695 62.791 11.2459C62.791 13.7059 64.369 15.6529 66.914 15.6529M66.914 14.8269C64.781 14.8269 64.051 12.8589 64.051 11.2469C64.051 9.70195 64.876 7.94695 66.914 7.94695C68.951 7.94695 69.776 9.70195 69.776 11.2469C69.776 12.8589 69.046 14.8269 66.914 14.8269ZM53.888 7.26295V15.5089H56.34C59.26 15.5089 61.005 13.8709 61.005 11.1389C61.005 9.15895 59.85 7.26195 56.528 7.26195L53.888 7.26295ZM55.032 8.08795H56.552C58.718 8.08795 59.742 9.27795 59.742 11.1159C59.744 13.5309 58.625 14.6859 56.305 14.6859H55.032V8.08795ZM48.042 7.26295L44.682 15.5089H45.792L46.672 13.0819H49.82L50.667 15.5079H51.987L48.912 7.26095H48.042V7.26295ZM46.992 12.2579C47.44 11.1159 47.876 9.97295 48.3 8.48795H48.323C48.736 9.97295 49.136 11.1159 49.548 12.2579H46.992ZM42.465 7.26295H41.522V13.8369H41.498C40.945 13.0129 37.905 9.40695 36.091 7.26295H35.244V15.5099H36.187V8.94695H36.211C36.704 9.66695 39.779 13.3649 41.571 15.5069L42.466 15.5089V7.26195L42.465 7.26295ZM80.642 7.26295H76.578V15.5089H77.721V12.0459H80.584V11.2209H77.72V8.08795H80.642V7.26295ZM89.75 7.26295V15.5089H92.2C95.122 15.5089 96.866 13.8709 96.866 11.1389C96.866 9.15895 95.711 7.26195 92.388 7.26195L89.75 7.26295ZM90.893 8.08795H92.413C94.58 8.08795 95.605 9.27795 95.605 11.1159C95.605 13.5309 94.485 14.6859 92.165 14.6859H90.893V8.08795ZM87.133 7.26295H83.07V15.5089H87.64V14.6849H84.212V11.5729H87.075V10.7499H84.212V8.08995H87.132V7.26495L87.133 7.26295ZM103.121 7.26295H99.058V15.5089H103.628V14.6849H100.2V11.5729H103.062V10.7499H100.2V8.08995H103.12V7.26495L103.121 7.26295ZM115.748 7.26295L112.388 15.5089H113.498L114.382 13.0819H117.528L118.378 15.5079H119.698L116.622 7.26095H115.749L115.748 7.26295ZM114.701 12.2579C115.148 11.1159 115.584 9.97295 116.008 8.48795H116.032C116.444 9.97295 116.845 11.1159 117.258 12.2579H114.7H114.701ZM105.827 15.5079L106.969 15.5099V12.0929H108.183L110.091 15.6529L111.246 15.2979L109.196 11.7879C109.984 11.2809 110.574 10.5979 110.574 9.38295C110.574 7.95795 109.526 7.26295 108.184 7.26295H105.827V15.5079ZM106.969 8.08795H107.947C108.713 8.08795 109.349 8.47795 109.349 9.49095C109.349 10.1869 109.079 11.2709 107.617 11.2709H106.969V8.08695V8.08795ZM121.466 15.5089H126.036V14.6849H122.608V7.26295H121.466V15.5089Z" fill="white"/>
</g>
<defs>
<clipPath id="clip0_62_749">
<rect width="168.462" height="22.776" fill="white"/>
</clipPath>
</defs>
</svg>
