<svg width="123" height="28" viewBox="0 0 123 28" fill="none" xmlns="http://www.w3.org/2000/svg">
<g clip-path="url(#clip0_8_236)">
<mask id="mask0_8_236" style="mask-type:luminance" maskUnits="userSpaceOnUse" x="-39" y="-116" width="201" height="260">
<path d="M-38.4949 -115.716H161.062V143.608H-38.4949V-115.716Z" fill="white"/>
</mask>
<g mask="url(#mask0_8_236)">
<path d="M5.98082 20.8701C5.87322 20.2447 5.65149 19.5777 4.25329 19.5777C2.85444 19.5777 2.67053 20.1124 2.67053 20.5371C2.67053 22.0868 8.79582 20.9637 8.79582 24.5789C8.79582 27.4406 6.0405 27.9665 4.51447 27.9665C2.29066 27.9665 0.539643 27.2245 0.00488281 25.6646L2.28739 24.6421C2.43739 25.4312 2.97215 26.0088 4.58621 26.0088C5.91333 26.0088 6.2231 25.3604 6.2231 24.9872C6.2231 23.3467 0.158138 24.5812 0.158138 20.9107C0.158138 19.4732 1.06136 17.6233 4.11666 17.6233C6.03071 17.6233 8.3067 18.1046 8.51213 20.8747H5.98833L5.98082 20.8701ZM16.0646 21.8118C15.9156 20.2263 14.9048 19.7444 14.0743 19.7444C12.8613 19.7444 12.2189 20.5171 12.0722 21.8104H16.0633L16.0646 21.8118ZM18.1173 25.9557C17.4456 27.1967 15.9707 27.9661 14.2957 27.9661C11.5404 27.9661 9.42481 26.6237 9.42481 22.5832C9.42481 21.4044 9.83012 17.6193 14.1157 17.6193C16.047 17.6193 18.7127 18.5427 18.7127 23.0285V23.4902H12.0001C12.0728 24.2334 12.2219 25.8902 14.2957 25.8902C15.013 25.8902 15.6805 25.5464 15.9065 24.9472L18.1173 25.9524V25.9557ZM24.8396 17.7208C26.753 17.7208 28.249 18.857 28.249 21.0213V27.8483H25.6737V21.7384C25.6737 21.0181 25.6362 19.7967 24.0042 19.7967C21.8697 19.7967 21.9793 19.6429 21.9793 22.0658V27.8483H19.5057L19.4979 17.7208H21.8619M43.7486 25.8346C45.3802 25.8346 46.0311 24.4639 46.0311 23.0065C46.0311 21.4404 45.5876 19.8501 43.8294 19.8501C42.1877 19.8501 41.6372 21.3072 41.6372 22.8625C41.6372 24.0232 42.097 25.8355 43.7469 25.8355M48.7424 27.8473H46.2251V26.4606H46.1892C45.5566 27.5654 44.4186 27.9635 43.3557 27.9635C40.4503 27.9635 39.2308 25.3719 39.2308 22.6768C39.2308 19.2814 41.1416 17.6167 43.2976 17.6167C44.9482 17.6167 45.7236 18.5237 46.1292 19.1491H46.1664V15.1905H48.7359V27.8456L48.7424 27.8473ZM54.8008 19.7958C52.815 19.7958 52.4563 21.5311 52.4563 22.7852C52.4563 24.051 52.815 25.7802 54.8008 25.7802C56.7833 25.7802 57.1551 24.0514 57.1551 22.7862C57.1551 21.5321 56.7833 19.7967 54.8008 19.7967M54.8008 27.9638C52.1759 27.9638 49.8021 26.3332 49.8021 22.7859C49.8021 19.2398 52.1759 17.617 54.8008 17.617C57.4355 17.617 59.806 19.2388 59.806 22.7849C59.806 26.3309 57.4322 27.9615 54.7976 27.9615M18.2581 15.1901C22.3295 9.08355 29.2621 5.06206 37.1299 5.06206C44.9981 5.06206 51.9297 9.08618 56.0008 15.1928H57.1909C51.364 6.05647 41.171 0.000972748 29.566 0.000972748C17.9611 0.000972748 7.76477 6.05843 1.93784 15.1937H18.2545L18.2581 15.1901ZM35.6522 22.9198C35.3995 23.1228 34.9661 23.2865 33.9028 23.4548C32.9441 23.6185 32.155 23.8641 32.155 24.9315C32.155 25.8385 32.8528 26.1201 33.3485 26.1201C34.4897 26.1201 35.6473 25.3768 35.6473 24.1817V22.9244L35.6522 22.9198ZM38.1424 27.8496H35.6968C35.7066 27.0156 35.7392 26.7239 35.7229 26.5353C35.1295 27.1508 34.3078 27.9629 32.56 27.9629C31.0862 27.9629 29.5797 27.1279 29.5797 25.0978C29.5797 23.1725 30.7927 22.1945 32.4296 21.9545L34.7512 21.5996C35.1588 21.5446 35.6545 21.3815 35.6545 20.8245C35.6545 19.7375 34.6273 19.6818 33.9647 19.6818C32.6748 19.6818 32.5431 20.4297 32.4224 20.7918H29.9368C30.2922 18.0774 32.2734 17.6157 34.2768 17.6157C35.6561 17.6157 38.1724 18.0414 38.1724 20.4611V25.7786M111.035 22.8333C110.781 23.0363 110.345 23.1991 109.279 23.3703C108.32 23.534 107.527 23.7796 107.527 24.8529C107.527 25.7632 108.229 26.0448 108.727 26.0448C109.875 26.0448 111.039 25.2982 111.039 24.0998V22.836L111.035 22.8333ZM113.534 27.7818H111.079C111.089 26.9449 111.125 26.6522 111.108 26.4645C110.511 27.0801 109.614 27.8977 107.935 27.8977C106.455 27.8977 104.942 27.0628 104.942 25.0255C104.942 23.0936 106.161 22.1107 107.805 21.8697L110.133 21.5148C110.54 21.4591 111.039 21.2954 111.039 20.7355C111.039 19.6435 110.006 19.5862 109.344 19.5862C108.046 19.5862 107.916 20.3367 107.795 20.6995H105.297C105.656 17.9753 107.644 17.5103 109.656 17.5103C111.043 17.5103 113.569 17.9386 113.569 20.3681V25.7065M120.192 20.8704C120.084 20.245 119.862 19.5777 118.463 19.5777C117.066 19.5777 116.882 20.1124 116.882 20.5371C116.882 22.0868 123.007 20.9637 123.007 24.5789C123.007 27.4406 120.251 27.9665 118.724 27.9665C116.5 27.9665 114.75 27.2245 114.213 25.6646L116.496 24.6421C116.644 25.4312 117.181 26.0088 118.795 26.0088C120.122 26.0088 120.432 25.3604 120.432 24.9872C120.432 23.3467 114.366 24.5812 114.366 20.9107C114.366 19.4732 115.267 17.6233 118.323 17.6233C120.234 17.6233 122.513 18.1046 122.716 20.8747H120.194L120.192 20.8704ZM66.797 17.7228C68.7104 17.7228 70.2065 18.8613 70.2065 21.0233V27.8509H67.6315V21.7387C67.6315 21.0194 67.594 19.7994 65.962 19.7994C63.8272 19.7994 63.9371 19.6465 63.9371 22.0694V27.8509H61.4631L61.4566 17.7228H63.8207M76.244 19.7994C74.2615 19.7994 73.8996 21.5347 73.8996 22.7888C73.8996 24.054 74.2615 25.7832 76.244 25.7832C78.2298 25.7832 78.5983 24.0543 78.5983 22.7891C78.5983 21.5344 78.2298 19.7994 76.244 19.7994ZM76.244 27.9665C73.6192 27.9665 71.2453 26.3359 71.2453 22.7891C71.2453 19.2431 73.6192 17.6206 76.244 17.6206C78.8787 17.6206 81.2525 19.2431 81.2525 22.7891C81.2525 26.3359 78.88 27.9665 76.2453 27.9665M100.312 24.146C100.22 25.1653 99.4269 27.9992 95.8286 27.9992C92.1395 27.9992 91.291 25.1653 91.291 23.09C91.291 19.9035 92.6736 17.6252 95.9943 17.6252C97.5444 17.6252 100.09 18.3292 100.33 21.4044H97.7085C97.5976 20.7725 97.2285 19.8098 96.1218 19.8098H95.9936C94.3698 19.8098 93.9459 21.4404 93.9459 22.6618C93.9459 23.7357 93.9818 25.864 95.9382 25.864C97.2467 25.864 97.6892 24.6034 97.6892 24.1417H100.31L100.312 24.146ZM103.821 18.2434H101.289V18.5633C101.287 21.6493 101.287 24.7344 101.287 27.8198H103.827C103.827 24.664 103.829 21.5076 103.824 18.3495V18.2414L103.821 18.2434ZM90.393 18.2434H87.8594V18.5633C87.8568 21.6493 87.8568 24.7344 87.8568 27.8198H90.3969C90.3969 24.664 90.3976 21.5076 90.3936 18.3495V18.2414L90.393 18.2434ZM103.83 15.1607H101.291V17.6917H103.829L103.83 15.1607ZM90.3923 17.6256C90.3937 16.938 90.3956 15.7749 90.3956 15.0022L87.8196 17.0565C87.8196 17.2611 87.8196 17.4527 87.818 17.6256H90.392H90.3923ZM86.2806 25.8758C85.2283 25.8758 85.211 25.6597 85.211 25.0887V19.6828H86.8587V17.6822H85.211V14.791L82.64 16.844V17.6855H80.9574V19.6861H82.64V25.6551C82.64 26.9354 82.8672 27.8129 85.0966 27.8129L85.5988 27.8162C86.0047 27.8162 86.4074 27.8162 86.815 27.8129V25.8909C86.5802 25.9007 86.4449 25.8811 86.2819 25.8811" fill="white"/>
</g>
</g>
<defs>
<clipPath id="clip0_8_236">
<rect width="123" height="28" fill="white"/>
</clipPath>
</defs>
</svg>
