<svg width="169" height="23" viewBox="0 0 169 23" fill="none" xmlns="http://www.w3.org/2000/svg">
<g clip-path="url(#clip0_176_256)">
<path fill-rule="evenodd" clip-rule="evenodd" d="M168.464 22.776H0.000976562V0H168.464V22.776ZM167.409 1.056H146.743V21.72H167.409V1.056ZM145.719 21.72H1.05498V1.054H145.717L145.719 21.72ZM164.737 16.313L163.37 16.308C157.493 12.036 153.803 12.036 149.126 16.308C148.333 16.306 146.742 16.308 146.742 16.308V18.068H167.408V16.308H166.7V9.67H167.408V9.24L166.701 9.238V8.913H167.409V8.683H166.702V2.515H164.738" fill="#005B9E"/>
<path d="M26.0171 7.94695C25.5571 7.42695 24.8401 7.12195 23.9801 7.12195C22.6931 7.12195 21.6221 7.95795 21.6221 9.06595C21.6221 10.2319 22.3871 10.7389 23.0721 11.2689C23.7421 11.7629 24.9801 12.4349 24.9801 13.4709C24.9801 14.3909 24.3561 14.8259 23.5421 14.8259C22.7651 14.8259 22.2351 14.4479 21.7521 14.1059L21.2451 14.7909C21.8331 15.3669 22.7751 15.6509 23.5651 15.6509C24.8851 15.6509 26.1221 14.8009 26.1221 13.4949C26.1221 12.4349 25.4621 11.6799 24.3321 10.8549C23.2721 10.0899 22.7651 9.65495 22.7651 9.06495C22.7651 8.42995 23.2251 7.94495 24.0481 7.94495C24.5431 7.94495 25.0731 8.23995 25.4751 8.53495L26.0151 7.94495L26.0171 7.94695ZM32.6271 7.26295H28.5631V15.5099H33.1331L33.1351 14.6859H29.7071V11.5739H32.5691V10.7509H29.7071V8.08995H32.6271V7.26495V7.26295ZM66.9171 15.6529C69.4611 15.6529 71.0401 13.7069 71.0401 11.2459C71.0381 8.93595 69.2951 7.12195 66.9151 7.12195C64.5351 7.12195 62.7921 8.93695 62.7921 11.2459C62.7921 13.7059 64.3701 15.6529 66.9151 15.6529M66.9151 14.8269C64.7821 14.8269 64.0521 12.8589 64.0521 11.2469C64.0521 9.70195 64.8771 7.94695 66.9151 7.94695C68.9521 7.94695 69.7771 9.70195 69.7771 11.2469C69.7771 12.8589 69.0471 14.8269 66.9151 14.8269ZM53.8891 7.26295V15.5089H56.3411C59.2611 15.5089 61.0061 13.8709 61.0061 11.1389C61.0061 9.15895 59.8511 7.26195 56.5291 7.26195L53.8891 7.26295ZM55.0331 8.08795H56.5531C58.7191 8.08795 59.7431 9.27795 59.7431 11.1159C59.7451 13.5309 58.6261 14.6859 56.3061 14.6859H55.0331V8.08795ZM48.0431 7.26295L44.6831 15.5089H45.7931L46.6731 13.0819H49.8211L50.6681 15.5079H51.9881L48.9131 7.26095H48.0431V7.26295ZM46.9931 12.2579C47.4411 11.1159 47.8771 9.97295 48.3011 8.48795H48.3241C48.7371 9.97295 49.1371 11.1159 49.5491 12.2579H46.9931ZM42.4661 7.26295H41.5231V13.8369H41.4991C40.9461 13.0129 37.9061 9.40695 36.0921 7.26295H35.2451V15.5099H36.1881V8.94695H36.2121C36.7051 9.66695 39.7801 13.3649 41.5721 15.5069L42.4671 15.5089V7.26195L42.4661 7.26295ZM80.6431 7.26295H76.5791V15.5089H77.7221V12.0459H80.5851V11.2209H77.7211V8.08795H80.6431V7.26295ZM89.7511 7.26295V15.5089H92.2011C95.1231 15.5089 96.8671 13.8709 96.8671 11.1389C96.8671 9.15895 95.7121 7.26195 92.3891 7.26195L89.7511 7.26295ZM90.8941 8.08795H92.4141C94.5811 8.08795 95.6061 9.27795 95.6061 11.1159C95.6061 13.5309 94.4861 14.6859 92.1661 14.6859H90.8941V8.08795ZM87.1341 7.26295H83.0711V15.5089H87.6411V14.6849H84.2131V11.5729H87.0761V10.7499H84.2131V8.08995H87.1331V7.26495L87.1341 7.26295ZM103.122 7.26295H99.0591V15.5089H103.629V14.6849H100.201V11.5729H103.063V10.7499H100.201V8.08995H103.121V7.26495L103.122 7.26295ZM115.749 7.26295L112.389 15.5089H113.499L114.383 13.0819H117.529L118.379 15.5079H119.699L116.623 7.26095H115.75L115.749 7.26295ZM114.702 12.2579C115.149 11.1159 115.585 9.97295 116.009 8.48795H116.033C116.445 9.97295 116.846 11.1159 117.259 12.2579H114.701H114.702ZM105.828 15.5079L106.97 15.5099V12.0929H108.184L110.092 15.6529L111.247 15.2979L109.197 11.7879C109.985 11.2809 110.575 10.5979 110.575 9.38295C110.575 7.95795 109.527 7.26295 108.185 7.26295H105.828V15.5079ZM106.97 8.08795H107.948C108.714 8.08795 109.35 8.47795 109.35 9.49095C109.35 10.1869 109.08 11.2709 107.618 11.2709H106.97V8.08695V8.08795ZM121.467 15.5089H126.037V14.6849H122.609V7.26295H121.467V15.5089Z" fill="#005B9E"/>
</g>
<defs>
<clipPath id="clip0_176_256">
<rect width="168.462" height="22.776" fill="white" transform="translate(0.000976562)"/>
</clipPath>
</defs>
</svg>
